<mxfile host="app.diagrams.net" agent="Mozilla/5.0 (Windows NT 10.0; Win64; x64) AppleWebKit/537.36 (KHTML, like Gecko) Chrome/133.0.0.0 Safari/537.36" version="26.0.12">
  <diagram name="페이지-1" id="Z5SjWWctEkPzR7hkQfwB">
    <mxGraphModel dx="1434" dy="780" grid="1" gridSize="10" guides="1" tooltips="1" connect="1" arrows="1" fold="1" page="1" pageScale="1" pageWidth="827" pageHeight="1169" math="0" shadow="0">
      <root>
        <mxCell id="0" />
        <mxCell id="1" parent="0" />
        <mxCell id="gpAN5RRWkUEyHtBk9evE-2" value="신청자 정보" style="rounded=0;whiteSpace=wrap;html=1;fontSize=14;" vertex="1" parent="1">
          <mxGeometry x="120" y="160" width="100" height="40" as="geometry" />
        </mxCell>
        <mxCell id="gpAN5RRWkUEyHtBk9evE-5" value="" style="shape=table;startSize=0;container=1;collapsible=0;childLayout=tableLayout;fontSize=12;" vertex="1" parent="1">
          <mxGeometry x="120" y="220" width="680" height="120" as="geometry" />
        </mxCell>
        <mxCell id="gpAN5RRWkUEyHtBk9evE-6" value="" style="shape=tableRow;horizontal=0;startSize=0;swimlaneHead=0;swimlaneBody=0;strokeColor=inherit;top=0;left=0;bottom=0;right=0;collapsible=0;dropTarget=0;fillColor=none;points=[[0,0.5],[1,0.5]];portConstraint=eastwest;fontSize=16;" vertex="1" parent="gpAN5RRWkUEyHtBk9evE-5">
          <mxGeometry width="680" height="40" as="geometry" />
        </mxCell>
        <mxCell id="gpAN5RRWkUEyHtBk9evE-7" value="&lt;font style=&quot;font-size: 13px;&quot;&gt;신청인&lt;/font&gt;" style="shape=partialRectangle;html=1;whiteSpace=wrap;connectable=0;strokeColor=inherit;overflow=hidden;fillColor=none;top=0;left=0;bottom=0;right=0;pointerEvents=1;fontSize=16;" vertex="1" parent="gpAN5RRWkUEyHtBk9evE-6">
          <mxGeometry width="120" height="40" as="geometry">
            <mxRectangle width="120" height="40" as="alternateBounds" />
          </mxGeometry>
        </mxCell>
        <mxCell id="gpAN5RRWkUEyHtBk9evE-8" value="" style="shape=partialRectangle;html=1;whiteSpace=wrap;connectable=0;strokeColor=inherit;overflow=hidden;fillColor=none;top=0;left=0;bottom=0;right=0;pointerEvents=1;fontSize=13;" vertex="1" parent="gpAN5RRWkUEyHtBk9evE-6">
          <mxGeometry x="120" width="220" height="40" as="geometry">
            <mxRectangle width="220" height="40" as="alternateBounds" />
          </mxGeometry>
        </mxCell>
        <mxCell id="gpAN5RRWkUEyHtBk9evE-9" value="&lt;font style=&quot;font-size: 13px;&quot;&gt;주민등록번호&lt;/font&gt;" style="shape=partialRectangle;html=1;whiteSpace=wrap;connectable=0;strokeColor=inherit;overflow=hidden;fillColor=none;top=0;left=0;bottom=0;right=0;pointerEvents=1;fontSize=16;" vertex="1" parent="gpAN5RRWkUEyHtBk9evE-6">
          <mxGeometry x="340" width="120" height="40" as="geometry">
            <mxRectangle width="120" height="40" as="alternateBounds" />
          </mxGeometry>
        </mxCell>
        <mxCell id="gpAN5RRWkUEyHtBk9evE-18" style="shape=partialRectangle;html=1;whiteSpace=wrap;connectable=0;strokeColor=inherit;overflow=hidden;fillColor=none;top=0;left=0;bottom=0;right=0;pointerEvents=1;fontSize=16;" vertex="1" parent="gpAN5RRWkUEyHtBk9evE-6">
          <mxGeometry x="460" width="220" height="40" as="geometry">
            <mxRectangle width="220" height="40" as="alternateBounds" />
          </mxGeometry>
        </mxCell>
        <mxCell id="gpAN5RRWkUEyHtBk9evE-10" value="" style="shape=tableRow;horizontal=0;startSize=0;swimlaneHead=0;swimlaneBody=0;strokeColor=inherit;top=0;left=0;bottom=0;right=0;collapsible=0;dropTarget=0;fillColor=none;points=[[0,0.5],[1,0.5]];portConstraint=eastwest;fontSize=16;" vertex="1" parent="gpAN5RRWkUEyHtBk9evE-5">
          <mxGeometry y="40" width="680" height="40" as="geometry" />
        </mxCell>
        <mxCell id="gpAN5RRWkUEyHtBk9evE-11" value="주소" style="shape=partialRectangle;html=1;whiteSpace=wrap;connectable=0;strokeColor=inherit;overflow=hidden;fillColor=none;top=0;left=0;bottom=0;right=0;pointerEvents=1;fontSize=13;" vertex="1" parent="gpAN5RRWkUEyHtBk9evE-10">
          <mxGeometry width="120" height="40" as="geometry">
            <mxRectangle width="120" height="40" as="alternateBounds" />
          </mxGeometry>
        </mxCell>
        <mxCell id="gpAN5RRWkUEyHtBk9evE-12" value="" style="shape=partialRectangle;html=1;whiteSpace=wrap;connectable=0;strokeColor=inherit;overflow=hidden;fillColor=none;top=0;left=0;bottom=0;right=0;pointerEvents=1;fontSize=13;" vertex="1" parent="gpAN5RRWkUEyHtBk9evE-10">
          <mxGeometry x="120" width="220" height="40" as="geometry">
            <mxRectangle width="220" height="40" as="alternateBounds" />
          </mxGeometry>
        </mxCell>
        <mxCell id="gpAN5RRWkUEyHtBk9evE-13" value="" style="shape=partialRectangle;html=1;whiteSpace=wrap;connectable=0;strokeColor=inherit;overflow=hidden;fillColor=none;top=0;left=0;bottom=0;right=0;pointerEvents=1;fontSize=13;" vertex="1" parent="gpAN5RRWkUEyHtBk9evE-10">
          <mxGeometry x="340" width="120" height="40" as="geometry">
            <mxRectangle width="120" height="40" as="alternateBounds" />
          </mxGeometry>
        </mxCell>
        <mxCell id="gpAN5RRWkUEyHtBk9evE-19" style="shape=partialRectangle;html=1;whiteSpace=wrap;connectable=0;strokeColor=inherit;overflow=hidden;fillColor=none;top=0;left=0;bottom=0;right=0;pointerEvents=1;fontSize=13;" vertex="1" parent="gpAN5RRWkUEyHtBk9evE-10">
          <mxGeometry x="460" width="220" height="40" as="geometry">
            <mxRectangle width="220" height="40" as="alternateBounds" />
          </mxGeometry>
        </mxCell>
        <mxCell id="gpAN5RRWkUEyHtBk9evE-14" value="" style="shape=tableRow;horizontal=0;startSize=0;swimlaneHead=0;swimlaneBody=0;strokeColor=inherit;top=0;left=0;bottom=0;right=0;collapsible=0;dropTarget=0;fillColor=none;points=[[0,0.5],[1,0.5]];portConstraint=eastwest;fontSize=16;" vertex="1" parent="gpAN5RRWkUEyHtBk9evE-5">
          <mxGeometry y="80" width="680" height="40" as="geometry" />
        </mxCell>
        <mxCell id="gpAN5RRWkUEyHtBk9evE-15" value=".상세주소" style="shape=partialRectangle;html=1;whiteSpace=wrap;connectable=0;strokeColor=inherit;overflow=hidden;fillColor=none;top=0;left=0;bottom=0;right=0;pointerEvents=1;fontSize=13;" vertex="1" parent="gpAN5RRWkUEyHtBk9evE-14">
          <mxGeometry width="120" height="40" as="geometry">
            <mxRectangle width="120" height="40" as="alternateBounds" />
          </mxGeometry>
        </mxCell>
        <mxCell id="gpAN5RRWkUEyHtBk9evE-16" value="" style="shape=partialRectangle;html=1;whiteSpace=wrap;connectable=0;strokeColor=inherit;overflow=hidden;fillColor=none;top=0;left=0;bottom=0;right=0;pointerEvents=1;fontSize=13;" vertex="1" parent="gpAN5RRWkUEyHtBk9evE-14">
          <mxGeometry x="120" width="220" height="40" as="geometry">
            <mxRectangle width="220" height="40" as="alternateBounds" />
          </mxGeometry>
        </mxCell>
        <mxCell id="gpAN5RRWkUEyHtBk9evE-17" value="" style="shape=partialRectangle;html=1;whiteSpace=wrap;connectable=0;strokeColor=inherit;overflow=hidden;fillColor=none;top=0;left=0;bottom=0;right=0;pointerEvents=1;fontSize=13;" vertex="1" parent="gpAN5RRWkUEyHtBk9evE-14">
          <mxGeometry x="340" width="120" height="40" as="geometry">
            <mxRectangle width="120" height="40" as="alternateBounds" />
          </mxGeometry>
        </mxCell>
        <mxCell id="gpAN5RRWkUEyHtBk9evE-20" style="shape=partialRectangle;html=1;whiteSpace=wrap;connectable=0;strokeColor=inherit;overflow=hidden;fillColor=none;top=0;left=0;bottom=0;right=0;pointerEvents=1;fontSize=13;" vertex="1" parent="gpAN5RRWkUEyHtBk9evE-14">
          <mxGeometry x="460" width="220" height="40" as="geometry">
            <mxRectangle width="220" height="40" as="alternateBounds" />
          </mxGeometry>
        </mxCell>
        <mxCell id="gpAN5RRWkUEyHtBk9evE-21" value="&lt;div&gt;&lt;br&gt;&lt;/div&gt;" style="rounded=1;whiteSpace=wrap;html=1;" vertex="1" parent="1">
          <mxGeometry x="249" y="225" width="200" height="30" as="geometry" />
        </mxCell>
        <mxCell id="gpAN5RRWkUEyHtBk9evE-22" value="&lt;div&gt;&lt;br&gt;&lt;/div&gt;" style="rounded=1;whiteSpace=wrap;html=1;" vertex="1" parent="1">
          <mxGeometry x="590" y="226" width="200" height="30" as="geometry" />
        </mxCell>
        <mxCell id="gpAN5RRWkUEyHtBk9evE-25" value="&lt;div&gt;&lt;br&gt;&lt;/div&gt;" style="rounded=1;whiteSpace=wrap;html=1;" vertex="1" parent="1">
          <mxGeometry x="249" y="265" width="321" height="30" as="geometry" />
        </mxCell>
        <mxCell id="gpAN5RRWkUEyHtBk9evE-26" value="주소검색" style="rounded=1;whiteSpace=wrap;html=1;" vertex="1" parent="1">
          <mxGeometry x="590" y="265" width="76" height="30" as="geometry" />
        </mxCell>
        <mxCell id="gpAN5RRWkUEyHtBk9evE-27" value="&lt;div&gt;&lt;br&gt;&lt;/div&gt;" style="rounded=1;whiteSpace=wrap;html=1;" vertex="1" parent="1">
          <mxGeometry x="249" y="304" width="201" height="30" as="geometry" />
        </mxCell>
      </root>
    </mxGraphModel>
  </diagram>
</mxfile>
